<svg width="400" height="217" viewBox="0 0 400 217" fill="none" xmlns="http://www.w3.org/2000/svg">
<path d="M78.9575 78.0579C79.2686 78.6217 79.5744 79.101 79.9998 79.587C79.0628 82.0703 78.7057 85.3807 79.3461 87.968C78.7743 88.7085 78.4764 89.4626 78.5592 90.419C78.6264 91.1971 78.9703 91.6268 78.7596 92.4421C78.2799 91.0643 78.2317 89.6928 78.1396 88.25C77.9108 84.6726 78.1175 81.5449 78.9575 78.0579Z" fill="white"/>
<path d="M134.048 59.3183L138.697 53.8277C143.4 49.0545 149.985 46.0649 156.606 45.1465C159.992 44.6765 163.469 44.7345 166.882 44.707L166.991 45.7953L166.193 45.9989C158.081 44.7004 149.308 46.761 142.649 51.5873C139.781 53.6661 137.344 56.4464 135.214 59.2483L134.048 59.3183Z" fill="white"/>
<path d="M295.256 125.216L296.076 125.191C298.521 125.151 301.604 124.869 303.486 126.732C304.258 127.496 304.829 128.533 305.005 129.609C305.232 131.001 305.142 132.497 305.143 133.904L305.147 140.724L305.143 164.919C308.168 165.219 311.421 164.987 314.468 164.989L333.078 164.998L337.985 165.003C338.859 165.006 339.845 164.907 340.685 165.16L340.799 165.195L341.08 165.28C342.118 165.614 343.32 166.45 343.799 167.461C344.385 168.697 344.596 170.247 344.15 171.552C343.88 172.343 343.477 173.002 342.716 173.381C342.57 173.761 342.026 174.053 341.664 174.219C341.051 174.501 340.428 174.596 339.759 174.634C336.671 174.809 333.518 174.694 330.423 174.695L313.959 174.687L303.66 174.663C302.088 174.655 299.735 174.917 298.287 174.33C297.245 173.907 296.259 172.816 295.927 171.74C295.516 170.407 295.583 168.948 295.577 167.569L295.563 161.737L295.568 134.778L295.558 128.36C295.555 127.426 295.716 126.193 295.319 125.338L295.256 125.216Z" fill="white"/>
<path d="M327.268 125.206L358.568 125.177L368.058 125.181C369.606 125.181 371.322 125.042 372.855 125.233C373.053 125.258 373.207 125.352 373.368 125.467C373.917 125.861 374.456 126.171 374.946 126.652C375.66 127.351 376.237 128.207 376.248 129.208C376.268 131.091 375.887 132.558 374.495 133.938C374.018 134.412 373.424 134.851 372.757 135.004C371.319 135.332 369.36 135.111 367.859 135.116L356.553 135.127L356.557 148.403C356.557 150.246 356.754 152.366 356.53 154.181C356.494 154.47 356.348 154.725 356.188 154.962C356.307 155.115 356.444 155.304 356.498 155.492C356.773 156.453 356.555 158.12 356.557 159.144L356.544 167.873C356.54 169.184 356.829 171.147 356.219 172.324L356.156 172.441C355.974 172.784 355.783 173.097 355.511 173.378C354.635 174.283 353.66 174.628 352.423 174.62C350.483 174.609 349.523 174.522 348.098 173.044C347.831 172.768 347.262 172.241 347.137 171.919C346.949 171.439 347.046 170.195 347.039 169.647L347.018 162.693L347.055 135.121L337.126 135.122C335.011 135.122 332.339 135.455 330.346 134.663C327.529 133.544 327.63 130.307 327.597 127.808C327.586 126.986 327.673 126.091 327.329 125.329L327.268 125.206Z" fill="white"/>
<path d="M80.7546 125.208L124.022 125.229C125.773 125.278 127.519 125.704 128.738 127.037C129.535 127.908 130.005 129.11 129.916 130.297C129.79 131.975 128.759 133.762 127.19 134.443C125.036 135.378 121.512 135.013 119.181 135.006L101.585 134.908C99.0936 134.933 96.3634 134.775 93.9172 135.243C93.1326 135.393 92.3505 135.719 91.746 136.249C89.5295 138.192 90.2713 142.543 90.1173 145.257L112.554 145.275L117.45 145.29C117.93 145.296 118.6 145.212 119.007 145.479C119.485 145.793 120.009 146.077 120.421 146.478C121.365 147.396 121.814 148.689 121.84 149.982C121.864 151.151 121.339 152.225 120.53 153.051C119.847 153.749 119.031 154.231 118.077 154.44C116.332 154.822 114.2 154.641 112.409 154.647L101.407 154.667L90.2956 154.791L90.3642 159.824C90.3749 160.486 90.2709 161.366 90.4771 161.993C90.7214 162.734 91.6296 164.308 92.4072 164.595C93.0051 164.816 93.8221 164.743 94.455 164.746L98.3913 164.755L116.202 164.741C119.102 164.739 122.245 164.501 125.113 164.841C125.767 164.918 126.446 165.183 127.022 165.495C128.702 166.406 129.24 167.578 129.773 169.305C129.513 170.784 129.298 171.994 128.208 173.115C126.673 174.693 124.817 174.5 122.776 174.526L103.873 174.575C100.073 174.586 95.7911 174.942 92.0491 174.308C89.3552 173.852 86.158 172.949 84.1761 170.959C82.6789 169.455 81.622 167.271 81.2002 165.205C80.2629 160.612 80.7435 155.352 80.7501 150.657L80.7546 125.208Z" fill="#A38F67"/>
<path d="M27.041 125.247L47.283 125.219L56.474 125.195C59.1662 125.19 61.6813 125.125 64.3315 125.695C68.2744 126.541 71.5765 128.553 73.7677 131.974C74.9458 133.814 75.5583 136.016 75.831 138.168C76.1421 140.624 75.9744 143.227 75.9699 145.703L75.9425 158.839L75.9602 166.091C75.9819 167.646 76.1638 169.406 75.8252 170.926C75.6216 171.839 75.3986 172.734 74.6989 173.403C73.5853 174.465 72.3634 174.756 70.848 174.689C69.0303 174.609 67.1923 173.252 66.6041 171.511C66.3129 170.65 66.3908 169.561 66.374 168.654L66.3235 163.153L66.3173 143.902L66.2766 139.645C66.2594 139.18 66.3204 138.422 66.1921 137.987C66.0894 137.639 65.4384 136.84 65.1675 136.555C64.7369 136.101 63.4857 135.201 62.8621 135.043C62.3961 134.925 61.476 135.058 60.9759 135.06L56.2655 135.067L56.2686 154.132L56.285 164.966C56.2806 166.763 56.4452 168.805 56.135 170.576C55.9504 171.629 55.5716 172.566 54.8289 173.352C54.0571 174.169 52.89 174.664 51.7716 174.682C50.2801 174.705 49.1923 174.404 48.1079 173.326C47.3861 172.608 46.9754 171.772 46.8262 170.768C46.6156 169.354 46.705 167.842 46.7037 166.413L46.7001 159.425L46.7107 135.045L36.6284 135.036C36.4115 135.374 36.5065 135.984 36.5067 136.396L36.5087 140.541L36.5177 161.342L36.5243 167.507C36.5229 168.555 36.6217 169.738 36.4712 170.767C36.3335 171.708 35.847 172.702 35.1886 173.384C34.2685 174.337 33.2997 174.78 31.9768 174.797C30.7284 174.812 29.3805 174.34 28.502 173.434C27.7964 172.706 27.4101 171.962 27.2601 170.97C27.016 169.355 27.1314 167.59 27.1175 165.958L27.0639 157L27.041 125.247Z" fill="#A38F67"/>
<path d="M241.719 125.185L266.08 125.207C269.778 125.206 273.762 124.904 277.43 125.31C281.608 125.771 285.355 127.353 288.006 130.699C289.432 132.499 290.463 134.859 290.837 137.125C291.224 139.466 291.027 142.108 291.036 144.485L291.08 158.016L291.142 166.288C291.155 167.807 291.282 169.437 291.08 170.942C290.949 171.915 290.134 172.971 289.354 173.531C288.228 174.34 286.849 174.747 285.479 174.478C281.358 173.667 281.613 170.076 281.596 166.813C281.592 165.959 281.716 165.072 281.217 164.336C281.992 163.343 281.53 156.542 281.5 154.845L251.81 154.745L251.817 164.942C251.814 166.97 252.029 169.25 251.501 171.216C251.177 172.423 250.325 173.379 249.233 173.964C248.199 174.517 246.707 174.775 245.578 174.406C244.209 173.958 243.188 173.033 242.515 171.786C242.258 171.309 242.129 170.885 242.083 170.34C241.725 166.162 242.034 161.725 242.049 157.512L242.054 133.656L242.037 128.188C242.031 127.274 242.161 126.155 241.782 125.312L241.719 125.185ZM252.813 135.043L251.912 135.102C251.572 135.698 251.795 136.906 251.798 137.628L251.806 145.241L280.092 145.243L281.453 145.23C281.618 144.253 281.529 143.173 281.526 142.183C281.521 140.408 281.814 138.705 280.728 137.191C279.956 136.115 278.906 135.368 277.585 135.164C274.293 134.657 270.573 134.962 267.239 134.966L252.813 135.043Z" fill="white"/>
<path d="M188.939 125.251L212.741 125.204L220.424 125.201C222.062 125.202 223.755 125.116 225.374 125.386C228.536 125.912 231.496 126.904 233.891 129.12C236.49 131.524 237.635 134.727 237.752 138.207C237.893 142.429 237.023 146.574 234.073 149.743L235.453 151.605C237.831 155.189 238.269 159.589 237.404 163.738C237.12 165.1 236.464 168.044 235.273 168.827C235.271 169.61 234.369 170.47 233.837 171.005C232.099 172.751 229.579 173.835 227.182 174.292C225.552 174.603 223.75 174.539 222.093 174.543L214.671 174.558L188.891 174.579L188.939 125.251ZM198.483 135.118L198.484 145.113C203.751 145.486 209.188 145.258 214.47 145.233C217.349 145.22 220.599 145.487 223.441 145.131C224.266 145.028 225.455 144.594 226.08 144.026C226.19 143.926 226.227 143.823 226.283 143.69C227.054 143.29 227.633 142.505 227.891 141.681C228.282 140.438 228.304 138.913 227.684 137.732C227.087 136.595 225.971 135.612 224.729 135.251C223.834 134.991 222.642 135.093 221.712 135.09L216.048 135.092L198.483 135.118ZM198.529 154.675C198.511 157.932 198.79 161.509 198.35 164.721L216.274 164.781C218.932 164.785 221.926 165.07 224.543 164.744C225.174 164.666 225.773 164.262 226.299 163.929L226.478 163.629C227.261 163.244 227.664 162.61 227.945 161.796C228.39 160.506 228.268 158.853 227.661 157.635C227.012 156.334 226.06 155.444 224.663 155.001C223.655 154.682 222.588 154.744 221.543 154.73L216.638 154.704L198.529 154.675Z" fill="white"/>
<path d="M134.082 125.228L156.294 125.204C161.465 125.207 167.193 124.744 172.273 125.722C174.573 126.165 176.65 127.066 178.467 128.558C180.879 130.538 182.591 133.633 182.87 136.754C183.205 140.511 183.014 144.447 183.027 148.223C183.045 153.103 183.549 158.555 182.588 163.318C181.971 166.376 181.1 168.572 179.094 170.987C177.136 172.74 175.063 173.723 172.485 174.239C170.809 174.574 168.97 174.521 167.263 174.526L159.698 174.522L134.045 174.555L134.082 125.228ZM146.577 135.039L143.637 135.067L143.775 164.751L170.836 164.723C171.853 163.847 172.383 163.026 173.174 161.973C173.328 161.769 173.448 161.566 173.48 161.307C173.736 159.208 173.516 156.886 173.546 154.762L173.622 143.442C173.622 141.865 173.805 140.015 173.562 138.465C173.398 137.419 172.414 136.266 171.556 135.68C171.117 135.38 170.631 135.156 170.103 135.081C167.92 134.766 165.396 134.97 163.179 134.961L146.577 135.039Z" fill="#A38F67"/>
<path d="M166.882 44.7069L219.867 44.3825L233.057 44.3692C236.984 44.3591 241.235 44.142 245.082 44.9866C249.087 45.866 252.74 48.294 255.654 51.1004C257.326 52.7096 258.781 54.4498 260.065 56.3839C260.582 57.1641 261.044 57.9692 261.485 58.795C261.608 59.0265 261.851 59.6682 262.027 59.8271C262.113 59.9041 266.038 59.8342 266.43 59.8373L287.423 59.9626C293.946 59.9865 301.252 59.3385 307.566 61.1C314.174 62.9437 320.645 68.456 323.486 74.6982C324.952 77.9188 325.645 81.7958 325.701 85.3178C325.803 91.7117 323.459 98.5172 318.953 103.132C315.434 106.735 310.9 109.568 305.915 110.559C303.04 111.131 299.972 111.149 297.052 111.177L233.408 111.348L224.504 111.103L214.656 111.368L160.368 111.392L119.898 111.382L106.693 111.325C104.265 111.287 101.707 111.351 99.3018 110.993C93.5726 110.14 88.8202 107.754 84.6861 103.684C82.1714 101.209 80.4847 98.1286 79.415 94.7982C79.1893 94.0967 78.8038 93.1704 78.76 92.4419C78.9707 91.6267 78.6268 91.197 78.5595 90.4189C78.4768 89.4625 78.7746 88.7084 79.3464 87.9679C78.706 85.3806 79.0632 82.0702 80.0001 79.5869C79.5748 79.1009 79.269 78.6216 78.9579 78.0578C80.1913 74.1874 82.4033 70.2149 85.2734 67.3062C90.1227 62.391 97.3111 60.5746 104.004 60.5277C105.091 60.136 107.099 60.3436 108.281 60.3091L126.144 60.1374C128.291 60.1396 130.667 60.483 132.775 60.2799C133.506 60.2095 133.606 59.8608 134.048 59.3182L135.214 59.2482C137.344 56.4463 139.782 53.666 142.65 51.5872C149.309 46.7609 158.081 44.7003 166.193 45.9988L166.991 45.7952L166.882 44.7069Z" fill="#A38F67"/>
<path d="M118.768 67.319C119.913 67.3788 121.011 67.2371 122.151 67.2013C124.871 67.1163 127.879 67.0703 130.585 67.3721L130.582 67.5053C130.551 68.1568 130.344 68.6335 129.86 69.0712C128.818 69.5801 121.724 69.6611 120.404 69.2168L120.242 69.1553C119.588 68.9149 119.126 67.9059 118.768 67.319Z" fill="#FEFEF2"/>
<path d="M121.685 102.326C121.635 102.244 121.619 102.229 121.596 102.121C121.457 101.465 121.705 101.048 122.052 100.531C122.813 100.011 125.014 100.214 125.979 100.209C129.902 100.191 133.914 100.09 137.824 100.375L138.68 101.374L138.556 102.039C134.538 102.36 130.29 102.101 126.243 102.107C124.916 102.109 122.924 101.877 121.685 102.326Z" fill="#FEFEF2"/>
<path d="M78.957 78.0579C80.1905 74.1875 82.4025 70.215 85.2726 67.3063C90.1219 62.3911 97.3103 60.5747 104.003 60.5278L103.849 60.6336C103.004 61.1948 102.418 60.9155 101.487 60.9624C100.796 60.997 100.022 61.162 99.3567 61.3391C98.6707 61.5214 98.0644 61.2895 97.3479 61.5475C96.3941 61.8901 95.0181 61.7671 94.2472 62.5677C94.0551 62.5876 93.7196 62.5663 93.586 62.6973C93.3505 62.927 93.235 62.9735 92.9234 63.0439C92.5849 63.12 92.3021 63.3404 91.9546 63.4289C90.9911 63.6746 89.836 64.4597 89.0195 65.0045C86.048 66.9881 84.4105 68.8354 82.4397 71.7688L82.7818 71.818L82.8871 71.7056C83.485 71.0784 84.6132 71.059 84.8703 70.1645C84.9814 69.7768 85.4567 69.4763 85.7608 69.2302L85.6107 69.0625C85.1836 69.1329 85.1522 69.2006 84.7853 68.9381L84.8553 68.8735C85.2438 68.5062 85.7081 67.6055 86.171 67.4502C86.4614 67.3528 86.7057 67.0882 86.9331 66.8886L87.1823 67.2762C86.88 67.7582 86.3737 68.0109 86.0387 68.4907L86.1029 68.6934C86.8646 68.3194 87.3979 67.5329 88.1051 67.082C88.2799 66.9709 88.4184 66.5872 88.5937 66.4982C89.2638 66.1579 89.9365 65.6993 90.6937 65.2758C91.3598 64.9032 92.2967 64.5168 92.8836 64.0795C93.4625 63.6489 94.6645 63.3515 95.3665 63.0023C95.786 62.7929 96.2706 62.8412 96.7336 62.6102C97.0978 62.4287 97.5762 62.5154 97.971 62.3672C98.5048 62.1663 99.1443 62.276 99.7289 62.1021C100.326 61.9251 103.248 61.9711 103.729 62.2981C101.513 62.3712 99.2633 62.4336 97.0916 62.9266C93.1558 63.8206 88.8907 66.4084 86.1294 69.3479C83.5138 72.1326 81.2416 75.9822 79.9993 79.587C79.574 79.101 79.2682 78.6217 78.957 78.0579Z" fill="#8C7E70"/>
<path d="M185.545 100.234C189.752 100.018 194.077 100.222 198.295 100.229C199.708 100.23 202.307 99.9131 203.561 100.354C203.679 100.396 203.908 100.643 204.015 100.732C204.139 101.248 204.286 101.523 204.08 102.039L203.414 102.087L184.226 102.038C184.603 101.375 185.054 100.816 185.545 100.234Z" fill="#FEFEF2"/>
<path d="M317.321 100.086L317.957 100.068C317.707 100.768 317.286 101.349 316.872 101.959C315.91 102.302 314.296 102.101 313.24 102.101L305 102.121L241.044 102.138L240.727 102.088L240.701 101.648C241.106 101.081 241.54 100.358 242.277 100.222C243.499 99.9971 245.043 100.197 246.298 100.203L255.654 100.229L299.291 100.246L311.04 100.261C313.035 100.26 315.366 100.482 317.321 100.086Z" fill="#FEFEF2"/>
<path d="M183.967 53.207L255.144 53.1309C255.787 53.6739 256.3 54.155 256.745 54.8733L256.666 55.1995L255.477 55.2437L238.392 55.3008L202.232 55.2477L190.375 55.3066C188.886 55.3283 187.035 55.6155 185.593 55.4132C185.275 55.3685 184.49 54.7972 184.249 54.5807C183.892 54.2599 183.418 53.8978 183.396 53.4115L183.967 53.207Z" fill="#FEFEF2"/>
<path d="M239.429 67.2761C241.462 67.0708 243.585 67.1876 245.63 67.1841L256.655 67.1659L293.196 67.169L310.381 67.1708L313.967 67.1761C314.374 67.177 315.045 67.0858 315.412 67.1796C315.546 67.2137 315.753 67.3611 315.872 67.431C316.464 67.7807 317.174 68.2277 317.356 68.9265C316.781 69.37 316.162 69.2686 315.452 69.3045L264.83 69.4775L249.15 69.5085C246.097 69.5204 242.904 69.7222 239.869 69.4089C239.203 68.9066 238.644 68.4733 238.19 67.7656L238.337 67.4726L239.429 67.2761Z" fill="#FEFEF2"/>
<path d="M221.057 62.5884C223.962 62.4755 226.967 62.7367 229.76 63.5625C235.51 65.2629 240.432 69.9268 243.24 75.1386C245.572 79.467 246.327 85.4258 245.331 90.2238C244.968 91.9724 244.285 93.6064 243.787 95.3125C243.161 97.4599 241.157 99.7113 239.708 101.381C235.61 106.104 229.804 108.714 223.634 109.137C217.872 109.352 212.233 107.472 207.833 103.744C203.323 99.922 199.908 94.2694 199.445 88.284C198.927 81.5873 200.628 75.5577 205.041 70.4371C209.353 65.4337 214.536 63.0704 221.057 62.5884Z" fill="#FEFEF2"/>
<path d="M208.965 70.6135C211.43 68.4369 214.733 66.5586 217.985 65.9151C220.209 65.4748 222.765 65.5057 225.028 65.6536C230.107 65.9855 234.658 68.7662 237.944 72.5591C241.28 76.4095 243.077 81.8877 242.67 86.9703C242.475 89.4102 242.079 91.7174 241.062 93.9586C240.762 94.6185 240.252 95.185 240.618 95.8413L240.508 95.9272C239.686 96.6016 239.153 97.6076 238.488 98.4317C236.576 100.803 233.594 103.672 230.535 104.384L230.431 104.509C230.096 104.87 229.211 105.019 228.743 105.134C226.568 105.666 224.248 106.116 222 106.124C216.851 106.141 211.619 103.675 207.989 100.038C204.371 96.4131 202.192 90.9517 202.228 85.8603C202.27 79.9736 204.791 74.7122 208.965 70.6135Z" fill="#A49B8F"/>
<path d="M209.644 70.7521C211.893 68.8274 214.625 67.3319 217.547 66.7433C220.164 66.2162 223.418 66.4326 226.091 66.6322C230.718 66.9774 234.39 69.4859 237.345 72.9252C240.557 76.6645 242.421 81.9467 242.011 86.8832C241.86 88.7101 241.644 90.6809 241.029 92.4172C240.646 93.4993 239.57 94.8522 239.477 95.9299C239.378 97.0833 235.964 100.405 234.987 101.187C233.509 102.37 231.813 103.378 230.047 104.057C228.033 104.845 225.477 105.135 223.319 105.19C221.539 105.236 219.38 105.312 217.644 104.926C214.366 104.197 210.558 101.529 208.195 99.2209C207.357 98.4021 206.699 97.3143 206.086 96.3194C204.056 93.0239 202.978 89.9202 202.953 86.0357C202.942 84.4096 202.965 82.7216 203.324 81.1266C204.185 77.3151 206.958 73.4815 209.644 70.7521Z" fill="#FEFEFE"/>
<path d="M221.583 73.91C223.901 73.6449 226.701 74.1203 228.628 75.5161C231.54 77.6264 233.867 80.9187 234.399 84.554C234.794 87.2546 233.664 90.828 231.971 92.9745C229.79 95.7415 226.609 97.3666 223.141 97.8141C220.797 97.6923 217.038 96.4837 215.101 95.1245C213.098 93.7202 211.47 90.9284 211.048 88.5443C210.515 85.5379 210.871 81.5387 212.697 79.0245C214.929 75.9499 217.899 74.5305 221.583 73.91Z" fill="#A49B8F"/>
<path d="M218.721 95.9198C217.38 95.6618 216.014 95.2302 214.99 94.284C213.141 92.5765 211.825 89.9423 211.763 87.4272C211.672 83.7082 211.783 80.692 214.542 77.8631C216.459 75.8963 218.456 75.2505 221.056 74.607C223.169 74.0839 225.472 74.7398 227.392 75.6259C230.309 76.9722 232.31 80.1251 233.315 83.0457C234.255 85.7759 233.789 88.2787 232.515 90.82C231.381 93.0842 229.727 94.5226 227.572 95.7782L220.535 95.9131C222.605 96.2738 224.92 96.0933 227.023 96.1021C226.799 96.4212 224.613 97.1377 224.132 97.213C222.713 97.4343 221.027 97.2435 219.868 96.3464C219.534 96.0888 219.287 96.0198 218.88 95.9472L218.721 95.9198Z" fill="#FEFEF2"/>
<path d="M221.037 78.0126C222.09 77.8953 223.303 77.7873 224.332 78.0613C226.402 78.6123 227.956 79.6134 229.098 81.4736C230.296 83.4271 230.626 85.4488 230.133 87.6851C229.917 88.6614 229.345 89.6329 228.772 90.4441C227.513 92.2242 225.677 93.3643 223.529 93.717C221.97 93.79 220.54 93.6608 219.147 92.904C217.325 91.9139 215.466 90.0029 214.89 87.9524C214.362 86.0741 214.74 83.3939 215.699 81.7294C216.966 79.5302 218.699 78.6605 221.037 78.0126Z" fill="#A38F67"/>
<path d="M103.73 62.2981C109.03 62.7566 113.139 64.2534 117.43 67.4532C118.829 68.7363 120.297 70.0574 121.45 71.5732C124.481 75.5559 125.866 80.2424 126.083 85.1789C126.368 91.6529 124.002 96.4765 120.228 101.543C119.332 102.118 118.474 103.221 117.626 103.928C115.082 106.048 111.619 107.691 108.417 108.517C102.556 110.029 96.2275 108.855 91.0719 105.798C86.9741 103.367 82.8838 98.8333 81.094 94.4004C80.2872 92.4013 79.8778 90.0614 79.3462 87.968C78.7058 85.3807 79.063 82.0702 79.9999 79.5869C81.2422 75.9821 83.5144 72.1326 86.1301 69.3479C88.8913 66.4083 93.1564 63.8206 97.0922 62.9266C99.264 62.4335 101.514 62.3711 103.73 62.2981Z" fill="#FEFEF2"/>
<path d="M111.164 104.448C109.112 105.798 104.562 106.079 102.151 106.06C96.7644 106.018 91.9598 103.535 88.2231 99.6926C84.6967 96.0661 82.4165 89.9285 82.5537 84.8645C82.5825 83.7957 82.9166 82.7012 83.1614 81.6625C84.1696 77.3814 86.0448 73.897 89.2442 70.8357L89.9355 70.9853C86.8392 74.1639 84.8427 77.3717 83.8199 81.7284C83.5482 82.8857 83.2154 83.994 83.2362 85.1938C83.3234 90.2529 85.3265 96.0356 89.0162 99.5705C91.5141 101.963 95.018 104.267 98.4591 104.927C100.07 105.236 101.963 105.169 103.612 105.132C106.139 105.076 108.446 104.825 110.81 103.905L111.164 104.448Z" fill="#A49B8F"/>
<path d="M89.2441 70.8357C91.4083 68.9451 93.7491 67.2938 96.5126 66.3808C99.4464 65.4115 103.184 65.4646 106.256 65.6585C110.408 65.9205 115.411 69.0876 118.112 72.2077C122.162 76.888 123.616 82.1237 123.152 88.2312C122.76 93.3837 119.51 98.391 115.662 101.66C114.363 102.764 112.727 103.767 111.164 104.448L110.81 103.905C112.493 103.251 114.141 102.143 115.508 100.97C118.903 98.0578 122.175 93.104 122.472 88.5167C122.601 86.534 122.683 84.1232 122.35 82.1675C121.741 78.5981 119.683 75.0084 117.315 72.314C114.679 69.3155 110.523 66.8331 106.489 66.5795C103.458 66.3887 99.4646 66.0856 96.5648 66.9548C94.0704 67.7023 91.8624 69.2951 89.9354 70.9853L89.2441 70.8357Z" fill="#8C7E70"/>
<path d="M89.9356 70.9853C91.8625 69.2951 94.0706 67.7023 96.5649 66.9547C99.4647 66.0855 103.459 66.3887 106.489 66.5794C110.523 66.833 114.679 69.3155 117.315 72.3139C119.683 75.0083 121.741 78.5981 122.35 82.1674C122.684 84.1232 122.601 86.5339 122.472 88.5167C122.175 93.104 118.903 98.0577 115.509 100.97C114.141 102.143 112.493 103.251 110.81 103.905C108.446 104.825 106.139 105.076 103.612 105.132C101.963 105.169 100.07 105.236 98.4592 104.927C95.0181 104.267 91.5142 101.963 89.0163 99.5705C85.3266 96.0356 83.3235 90.2529 83.2363 85.1938C83.2155 83.994 83.5483 82.8857 83.82 81.7284C84.8428 77.3717 86.8393 74.1639 89.9356 70.9853Z" fill="#FEFEFE"/>
<path d="M102.119 69.562C102.886 69.3872 104.135 69.4336 104.898 69.6036L105.102 69.6501C107.486 70.1626 110.173 71.3385 112.134 72.7875C115.651 75.385 118.009 79.3195 118.59 83.6554C119.064 87.2044 118.082 92.052 115.884 94.9106C112.758 98.9774 108.972 101.116 103.908 101.782C100.008 101.827 96.2864 100.624 93.1091 98.3007C90.2532 96.2122 87.6039 91.7395 87.0945 88.2414C86.4895 84.0851 87.8402 79.3513 90.3833 76.0174C93.2016 72.3228 97.5672 70.1652 102.119 69.562Z" fill="#A49B8F"/>
<path d="M101.731 70.2019C102.736 70.1887 103.816 70.1077 104.801 70.3228L105.004 70.3688C107.049 70.8043 109.299 71.6784 111.076 72.7808C114.292 74.7746 116.8 78.3467 117.605 82.0364L118.095 84.6578C118.305 87.6793 117.342 91.8267 115.646 94.352C114.972 95.3554 113.985 96.3277 113.16 97.2155C111.323 99.1916 107.454 100.858 104.759 100.958C100.929 101.369 97.3299 100.387 94.1509 98.1883C91.3423 96.2454 88.5479 92.3211 87.9641 88.9106C87.1582 84.2046 88.4036 79.8236 91.1936 76.0183C93.6256 72.7012 97.7513 70.8326 101.731 70.2019Z" fill="#FEFEFE"/>
<path d="M101.697 73.9746C102.4 73.8923 103.542 73.8109 104.215 73.9875C105.099 74.2194 105.986 74.3092 106.859 74.6018L107.012 74.6509L107.152 74.7005C107.985 74.9873 108.576 75.6905 109.398 75.9689L109.553 76.0078C109.88 76.1176 110.223 76.6159 110.475 76.8598C111.033 77.4006 111.784 77.6976 112.201 78.4721C112.89 79.7472 113.771 80.6288 114.113 82.1358C114.154 82.3181 114.18 82.4221 114.287 82.5832C114.663 83.1457 114.131 84.188 114.574 84.8536C114.574 86.6624 114.349 88.261 113.892 90.0278C113.763 90.5221 113.505 91.1701 113.207 91.591C112.994 91.8906 112.691 92.0654 112.639 92.4571L112.62 92.6651C111.871 93.379 111.352 94.4717 110.41 94.978C110.266 95.0555 110.168 95.1117 110.041 95.2197C109.121 96.0012 107.244 96.6673 106.077 97.0581C105.455 97.2661 104.804 97.3414 104.173 97.5454C103.46 97.552 102.57 97.6521 101.885 97.4764C101.198 97.2998 100.474 97.2617 99.8645 96.8567C99.7047 96.7505 99.7649 96.7713 99.5844 96.7107L99.437 96.6673L97.5277 96.0274C96.7417 95.7636 96.3943 95.263 95.7251 94.9099C95.163 94.6129 94.4089 93.9667 94.0942 93.383C93.8494 92.9298 93.4423 92.6133 93.1856 92.1756C92.3124 90.689 91.5808 88.9169 91.0369 87.2935C90.8696 86.7948 90.6815 86.1774 90.8103 85.66L91.4272 83.1944C91.8114 81.7551 92.5713 80.3907 93.2843 79.0926C94.3075 77.2293 97.6981 75.0913 99.7463 74.5677C99.9331 74.5203 100.023 74.5146 100.193 74.4013L100.315 74.3097C100.838 74.3681 101.225 74.1685 101.697 73.9746Z" fill="#FEFEF2"/>
<path d="M101.815 77.9665C103.526 77.8116 105.13 77.8192 106.664 78.6919C108.587 79.786 110.051 81.5828 110.621 83.7315C111.141 85.6886 110.736 88.0347 109.688 89.7426C108.302 92.002 106.689 92.9858 104.198 93.5984C102.238 93.8458 100.249 93.3855 98.6016 92.2914C96.864 91.1381 95.5124 89.0969 95.1211 87.0451C94.7458 85.0792 95.4402 82.757 96.5546 81.1429C97.8536 79.2611 99.6385 78.3857 101.815 77.9665Z" fill="#A38F67"/>
<path d="M135.214 59.2482C137.343 56.4463 139.781 53.666 142.649 51.5872C149.308 46.7609 158.08 44.7003 166.193 45.9988C174.712 47.5739 182.595 52.0886 187.56 59.3199C192.578 66.6282 194.559 75.2881 192.912 84.0409C191.308 92.5632 185.965 100.087 178.819 104.88C173.507 108.443 167.512 109.782 161.221 109.774C159.146 109.772 157.155 109.733 155.113 109.323C151.45 108.586 147.291 106.747 144.197 104.668C142.94 103.822 141.779 102.735 140.487 101.965C139.76 100.942 138.649 100.097 137.8 99.1589C135.762 96.9097 134.028 94.1162 132.759 91.366C129.395 84.0741 128.816 74.468 131.615 66.9207C132.369 64.271 133.728 61.5611 135.214 59.2482Z" fill="#FEFEF2"/>
<path d="M158.139 50.6778C159.842 50.6769 162.265 50.3676 163.806 50.8712C164.454 51.0828 165.11 50.6331 165.76 51.0664C167.628 51.008 169.562 52.0981 171.328 52.5322C172.145 52.7327 172.806 53.3408 173.591 53.5413C173.757 53.5838 173.859 53.5913 174.008 53.6904C174.75 54.1852 175.804 54.9168 176.603 55.266C177.303 55.5714 177.75 56.3154 178.361 56.6331C180.916 57.96 182.651 60.9421 184.4 63.1815C185.145 64.1357 186.041 65.7936 186.426 66.9394C186.585 67.4161 186.862 67.841 187.018 68.3066C187.256 69.0173 187.349 70.2698 187.745 70.8651C187.954 71.1802 187.742 71.5343 187.837 71.8666C188.112 72.8226 187.741 74.9395 188.22 75.667C188.223 77.3364 188.46 79.4046 188.033 80.9474C187.854 81.5932 188.211 82.5478 188.033 83.1935C187.896 83.687 187.826 84.1805 187.642 84.658C187.456 85.1409 187.568 85.7459 187.251 86.2203C187.281 86.5584 187.273 86.7049 187.11 87.0081C186.431 88.2752 186.078 89.7459 185.298 91.005C184.712 91.9503 183.659 93.1515 183.245 94.1305C182.921 94.8988 182.108 95.2197 181.683 95.8884C180.365 97.9579 178.435 99.2418 176.499 100.753C175.271 101.711 173.228 102.724 171.719 103.114C171.297 103.223 170.99 103.431 170.592 103.565C169.814 103.826 168.927 103.83 168.221 104.298C167.803 104.576 167.02 104.456 166.543 104.773C166.071 104.76 165.697 104.81 165.242 104.927L165.077 104.97C163.151 104.97 160.293 105.283 158.532 104.775C158.062 104.639 157.852 104.908 157.36 104.58C156.489 104.607 155.746 104.327 154.91 104.168C154.167 104.027 153.494 103.691 152.768 103.505C152.215 103.363 151.759 103.055 151.205 102.919C150.272 102.689 148.69 101.904 147.884 101.356C147.424 101.044 147.082 100.654 146.566 100.406C146.013 100.141 145.662 99.6622 145.149 99.4033C144.425 99.0378 144.007 98.3438 143.294 97.9397C142.815 97.668 142.374 97.024 142.12 96.5708C141.934 96.2394 141.416 95.8871 141.145 95.5963C140.418 94.8138 139.185 93.4038 138.745 92.4704C137.887 90.6532 136.815 89.0298 136.163 87.1001C136.02 86.6784 136.006 86.1198 135.766 85.7574C135.55 85.4334 135.615 84.7222 135.478 84.365C135.042 83.2311 135.038 81.9269 134.699 80.7545C134.484 80.0158 134.966 79.1068 134.503 78.411C134.502 77.0877 134.542 75.7171 134.892 74.5031C135.027 74.0331 134.759 73.8242 135.087 73.3311C135.041 71.8427 135.784 70.1764 136.163 68.7412C136.343 68.0574 136.724 67.4493 136.944 66.7881C137.305 65.7002 138.131 64.1547 138.793 63.1762C139.157 62.6371 139.827 61.8945 140.07 61.32C140.281 60.8182 140.683 60.5371 140.948 60.0516C141.134 59.7104 141.712 59.2682 141.998 58.9837C143.971 57.0186 146.111 55.6289 148.471 54.191C149.026 53.8533 149.554 53.47 150.184 53.2589C150.803 53.0514 151.354 52.6893 151.987 52.5322C152.794 52.3313 154.403 51.8073 155.094 51.3479C155.512 51.0704 156.295 51.1899 156.772 50.873C157.257 50.9013 157.672 50.7907 158.139 50.6778Z" fill="#FEFEFE"/>
<path d="M160.341 61.7935C160.473 61.7205 160.564 61.6665 160.715 61.6413C161.303 61.5435 162.755 61.5023 163.218 61.809C164.053 61.7869 164.679 62.0732 165.474 62.2224C166.019 62.3246 166.498 62.5517 167.028 62.6889C167.401 62.7853 167.659 62.9641 168.005 63.0796C169.106 63.4461 169.926 64.4105 170.935 64.8371L171.079 64.8774C171.454 65.0031 171.592 65.4519 171.912 65.6183C172.555 65.9533 173.576 66.8703 173.934 67.536C174.131 67.902 174.428 68.16 174.656 68.5012L175.038 69.1337C175.168 69.4691 175.253 69.5643 175.52 69.8179L175.624 69.9148C175.666 70.1188 175.688 70.2684 175.806 70.4446C175.973 70.6951 176.169 70.9434 176.264 71.2324C176.423 71.7112 176.701 72.1361 176.856 72.603C176.986 72.9982 176.955 73.4395 177.192 73.7949C177.357 74.0436 177.197 74.1804 177.284 74.4052L177.674 75.4793C177.878 76.0666 177.465 76.6314 177.869 77.2372C177.869 77.767 177.85 77.9246 177.676 78.407C177.526 78.823 177.753 79.5718 177.632 80.0631C177.012 82.5849 176.187 84.4371 174.939 86.7084C174.663 87.2112 174.119 87.5896 173.866 88.0746L173.767 88.3685C173.593 88.6987 173.011 89.1435 172.735 89.417C170.81 91.3196 168.971 92.2738 166.442 93.1523C165.845 93.3594 165.168 93.4033 164.587 93.6396C164.103 93.8361 163.665 93.933 163.152 94.0299C162.218 94.0361 160.997 94.191 160.101 93.9609L156.09 92.9567C155.573 92.8244 155.258 92.4964 154.723 92.3712C154.476 92.3132 154.345 92.2959 154.148 92.1388C153.744 91.8153 153.21 91.5887 152.768 91.2961C152.329 91.0049 151.92 90.5398 151.475 90.2959C149.252 89.0793 148.23 86.3884 146.909 84.4079C146.517 83.8188 146.258 83.1877 146.1 82.4933C146.059 82.3105 146.034 82.2078 145.927 82.0463C145.618 81.5833 146.012 80.9199 145.64 80.3618C145.64 79.0899 145.397 77.1908 145.833 76.0671C145.974 75.7037 145.787 74.9686 145.904 74.5105C146.412 72.53 146.991 71.1115 147.984 69.3279C148.221 68.9013 148.649 68.561 148.862 68.1569C149.221 67.4784 149.911 66.8163 150.425 66.2042C150.89 66.1215 151.393 65.4257 151.792 65.131C152.886 64.3215 154.358 63.2598 155.654 62.8309C155.938 62.7371 156.21 62.6499 156.462 62.4826C156.7 62.3237 156.849 62.4808 157.066 62.3972C158.146 61.9807 159.12 61.8086 160.341 61.7935Z" fill="#FEFEF2"/>
<path d="M159.83 67.0151C162.401 66.7266 165.014 67.093 167.26 68.4508C169.56 69.8423 171.668 72.515 172.265 75.1355C172.903 77.9437 172.561 81.0236 170.98 83.4692C169.04 86.4704 166.689 87.9039 163.233 88.6434C160.678 89.1626 158.23 88.5735 156.011 87.255C153.468 85.745 151.631 83.4471 150.935 80.5412C150.274 77.7821 150.749 74.5863 152.275 72.1773C154.038 69.3926 156.632 67.706 159.83 67.0151Z" fill="#A38F67"/>
</svg>
